PathFileType	4	(X/Y/Z)	OpenSim_Sub09_CSStiffKnee_Gyro.trc
DataRate	CameraRate	NumFrames	NumMarkers	Units	OrigDataRate	OrigDataStartFrame	OrigNumFrames
100	100	37	8	m	100	1782	7127
Frame#	Time	torso_imu_offset_imu	pelvis_imu_offset_imu	tibia_r_imu_offset_imu	femur_r_imu_offset_imu	tibia_l_imu_offset_imu	femur_l_imu_offset_imu	toes_r_imu_offset_imu	toes_l_imu_offset_imu
				X1	Y1	Z1	X2	Y2	Z2	X3	Y3	Z3	X4	Y4	Z4	X5	Y5	Z5	X6	Y6	Z6	X7	Y7	Z7	X8		Y8	Z8	

1782	17.81000000	-0.28452326	0.21791423	-0.27417090	-0.60616269	-0.46576001	0.12773158	-0.52518883	-0.05967373	-0.84936533	-0.19452877	0.18894404	-0.60973169	1.17748747	-0.32449679	-1.18871237	-0.24504019	-0.30433509	-0.95675119	0.13663275	-0.16475393	-0.28727512	1.09161770	1.19318910	0.04825513
1783	17.82000000	-0.35878883	0.28776154	-0.32399417	-0.70572669	-0.55664968	0.14852045	-0.53196992	-0.05043499	-0.92005445	-0.25689646	0.21608702	-0.59121312	1.05337188	-0.31815496	-1.01176936	-0.23851833	-0.27981207	-0.85821315	0.12432775	-0.19689338	-0.29335059	1.06790077	0.98107447	0.08747474
1784	17.83000000	-0.45826973	0.37649986	-0.37221387	-0.79226617	-0.64449884	0.17349929	-0.56511370	-0.06244982	-1.01549208	-0.34809899	0.22701361	-0.56953531	0.83379993	-0.34029471	-0.81636916	-0.18973218	-0.31505379	-0.74302579	0.10673989	-0.22409457	-0.28420844	0.98267006	0.74505620	0.07620095
1785	17.84000000	-0.54028257	0.46171479	-0.42559941	-0.86739592	-0.73099444	0.19194279	-0.62707573	-0.06891877	-1.12987083	-0.47522020	0.23734472	-0.52758289	0.58859572	-0.35905051	-0.59620852	-0.17208086	-0.36365223	-0.59953960	0.09607318	-0.23656836	-0.28044776	0.80639208	0.47319983	0.07696643
1786	17.85000000	-0.60614345	0.54301645	-0.47838151	-0.93958363	-0.81971896	0.21318210	-0.69193183	-0.09421311	-1.24141897	-0.60074860	0.25535689	-0.46918572	0.33635368	-0.36201155	-0.38575198	-0.18049685	-0.39766908	-0.44067552	0.11065520	-0.24682815	-0.28534027	0.60142691	0.18392252	0.06503909
1787	17.86000000	-0.66233166	0.63597458	-0.52174372	-1.01270401	-0.92348930	0.22449858	-0.80146529	-0.14105227	-1.34428520	-0.69685330	0.26490688	-0.39661988	0.09672125	-0.38507510	-0.16350669	-0.18260825	-0.42148397	-0.29487587	0.12293563	-0.27983766	-0.28964808	0.45947090	-0.07232955	0.15992602
1788	17.87000000	-0.68697763	0.73860045	-0.58582356	-1.05491000	-1.00129294	0.24838427	-0.88083256	-0.20505320	-1.45890876	-0.74732287	0.25703687	-0.31301416	-0.11245213	-0.41212148	0.07629308	-0.22377033	-0.43963029	-0.16447953	0.11158837	-0.32239766	-0.29186403	-0.90967159	-1.20835408	0.61098044
1789	17.88000000	-0.70704282	0.84100438	-0.67919127	-1.11365262	-1.04484727	0.24475308	-0.94100651	-0.26924195	-1.61064461	-0.74885913	0.25395555	-0.24406778	-0.35075020	-0.48385188	0.25100079	-0.25019788	-0.47212091	-0.03356465	0.08097803	-0.37578525	-0.26043182	-2.42678834	-2.46618093	0.99219740
1790	17.89000000	-0.76715661	0.94542078	-0.75923954	-1.17756818	-1.01062190	0.23582815	-1.02601103	-0.31134907	-1.78778267	-0.72733224	0.25361358	-0.15876311	-0.45388452	-0.51892784	0.73917457	-0.19709277	-0.59188470	0.08339236	0.02300451	-0.47330646	-0.22898778	-1.61502093	-3.66221065	1.03841512
1791	17.90000000	-0.81755165	1.00346578	-0.81587612	-1.31530897	-0.75743424	0.15069315	-1.11271638	-0.42123625	-1.95302397	-0.68305879	0.26570946	-0.05951683	-1.24920243	-0.78050668	1.68762904	-0.20792193	-0.79537864	0.15940978	-0.03899242	-0.66929766	-0.19589266	-0.80545557	-3.02007564	1.27505220
1792	17.91000000	-0.88626686	0.96378697	-0.84674807	-1.47968541	-0.43553361	-0.07713250	-1.03299334	-0.45246571	-2.12973544	-0.56385869	0.32226212	0.10141964	-2.35113202	-1.14900435	2.04940474	-0.48832988	-0.93177559	0.18410110	-0.18757302	-0.96254186	-0.13237595	-0.95632682	-1.83629380	1.29350013
1793	17.92000000	-1.00831151	0.85840941	-0.88681816	-1.41528711	-0.15072376	-0.33366087	-0.97767453	-0.48671171	-2.33128661	-0.31942212	0.40972426	0.33844203	-1.20062240	-1.03709717	1.02035533	-1.05231037	-0.89184320	0.34225789	-1.00940772	-1.38648246	-0.36277524	-0.92710434	-1.03019918	0.55427554
1794	17.93000000	-0.97837731	0.77097650	-0.92100408	-1.20846139	-0.10628061	-0.58152656	-1.01948138	-0.69278336	-2.40050467	-0.06588165	0.41547574	0.64122322	-0.27093320	-0.37433696	0.84749249	-1.39755620	-0.50118711	0.80305236	-0.27201845	-2.01654170	-0.81700211	-0.23633935	-0.74084780	-0.04274857
1795	17.94000000	-0.82765398	0.74101115	-0.92936927	-0.92888459	-0.30177168	-0.68263782	-0.75329669	-0.76168286	-2.33512147	-0.00604050	0.32544891	0.94787159	-1.12884735	-0.03198903	1.51204158	-1.66259007	0.17968115	1.49295731	-0.32140882	-2.52712382	-1.07909046	0.22703117	-0.66969377	-0.28432695
1796	17.95000000	-0.68733753	0.75022477	-0.90515322	-0.64542029	-0.52280584	-0.57513913	-0.52030042	-0.75989686	-2.39440075	-0.31046303	0.24687441	1.24788023	-1.62672862	-0.51361426	1.30053050	-1.79550567	0.45429261	1.61044520	-0.45065126	-3.00153490	-1.34789504	0.47126114	-0.71841220	-0.51769395
1797	17.96000000	-0.57825444	0.73285105	-0.85858115	-0.63071321	-0.72222838	-0.49708422	-0.14462788	-0.76003382	-2.50057812	-0.84540563	0.27375218	1.61732609	-1.55898006	-0.93935533	0.82217230	-1.67667357	0.25707902	1.34965007	-0.50386397	-3.41086128	-1.66815206	0.58044131	-0.55014975	-0.54566892
1798	17.97000000	-0.55323668	0.67363134	-0.86249877	-0.78012308	-0.88959922	-0.44774102	0.59989394	-0.56013098	-2.56100056	-1.37592411	0.35202940	1.82035833	-1.54827283	-0.71595325	0.67193414	-1.34722403	-0.08708464	1.35618255	-1.29721961	-3.57410328	-1.95418946	0.60094319	-0.48059087	-0.54210973
1799	17.98000000	-0.58824238	0.60085366	-0.88327888	-0.89164500	-0.97899953	-0.32987876	1.21899155	-0.45891189	-2.63315170	-1.83317711	0.37396455	1.81723299	-1.10790058	-0.20432229	0.70096779	-0.88750034	-0.37034516	1.46861883	-2.02405904	-3.54526097	-2.12196299	0.63225327	-0.48954536	-0.53771411
1800	17.99000000	-0.63303195	0.53211224	-0.86837414	-0.94010032	-0.94821537	-0.17742824	1.42247518	-0.58418592	-2.67594737	-2.14497929	0.29535837	1.81389290	-0.16574623	-0.04038092	0.66251398	-0.44090900	-0.52243658	1.57629748	-2.03575953	-3.29031386	-2.08673907	0.57844218	-0.45796229	-0.45263354
1801	18	-0.65861552	0.46645453	-0.85397843	-0.91015003	-0.76949355	-0.05293427	1.26403890	-0.67155024	-2.60426035	-2.15025634	0.20813608	1.84583111	0.51363070	-0.25679355	0.74759618	-0.13934392	-0.59595644	1.57244456	-1.58347516	-2.86519622	-1.78864044	0.44123416	-0.42232497	-0.30309733
1802	18.01000000	-0.64155819	0.39688187	-0.80225498	-0.84072801	-0.47006219	0.05401742	1.05387784	-0.63562008	-2.39988031	-1.88603826	0.26408767	1.79089616	0.83055415	-0.43469366	0.90848487	0.04702334	-0.65452702	1.29226698	-1.13719134	-2.09938606	-1.44914678	0.22017584	-0.37809065	-0.11737202
1803	18.02000000	-0.60080133	0.34068814	-0.73570616	-0.78186041	-0.12985969	0.17064608	0.84237991	-0.69266280	-2.12440426	-1.51210506	0.40006519	1.60734527	0.92131001	-0.35330452	0.91768474	-0.01718761	-0.68127060	0.91639521	0.41333814	-1.34873806	-0.96055589	-0.00938696	-0.35283134	0.04368035
1804	18.03000000	-0.55503104	0.29181598	-0.64300874	-0.72746786	0.16987194	0.30996665	0.48614552	-0.81512540	-1.64637656	-1.07775796	0.40590407	1.39458860	0.77826561	-0.28730185	0.91555486	-0.20324326	-0.68260206	0.61050409	1.29628697	-1.24827204	-0.18545465	-0.15145851	-0.34283491	0.13124712
1805	18.04000000	-0.52399806	0.22432641	-0.50803625	-0.63785046	0.37050778	0.46972794	-0.35118756	-0.84870214	-0.91493798	-0.70702347	0.25994122	1.22764246	0.57596154	-0.30077162	0.94421510	-0.37039237	-0.68210132	0.38049619	0.60170431	-0.89950957	0.53021903	-0.18528094	-0.31370194	0.15124109
1806	18.05000000	-0.53591081	0.13830354	-0.37666693	-0.50515071	0.44687122	0.59977498	-0.73691439	-0.40504790	-0.26471149	-0.30984253	0.18411032	1.12314758	0.44818744	-0.27057077	0.95408026	-0.41440847	-0.61551951	0.25591051	-0.13372739	-0.33264425	0.90265452	-0.13504397	-0.29564777	0.13028514
1807	18.06000000	-0.58702864	0.04700194	-0.27001436	-0.31740110	0.42029623	0.72046002	-0.39530461	0.01569288	0.18419106	0.01979815	0.17544550	1.08693078	0.29559467	-0.23864824	0.91559465	-0.31103633	-0.47886617	0.24437104	-0.25590489	0.11016378	0.87010487	-0.10036116	-0.27975348	0.10512479
1808	18.07000000	-0.66293846	-0.01952996	-0.18941005	-0.14699149	0.33388118	0.83550578	-0.12414420	-0.09682629	0.64013786	0.12729007	0.15989403	1.07478906	0.12103687	-0.19867032	0.85226482	-0.04889859	-0.31529735	0.36547424	-0.11432056	0.58360986	0.66083461	-0.08413563	-0.24255231	0.08604790
1809	18.08000000	-0.72066477	-0.07857479	-0.12106459	-0.06853257	0.24307741	0.86918986	0.01455852	-0.18407337	1.07887507	0.20875710	0.19462873	1.03391090	-0.01140393	-0.21907595	0.83896636	0.26878924	-0.17455994	0.48401984	-0.09879977	1.04928615	0.50016403	-0.07601901	-0.20489711	0.07511241
1810	18.09000000	-0.74929566	-0.13610401	-0.05947213	-0.08658067	0.16775048	0.83713112	0.05235364	-0.04805766	1.37524988	0.41046755	0.24743295	0.96404828	-0.05612292	-0.27089949	0.80697533	0.57875884	-0.05578118	0.53587378	-0.25522492	1.42362231	0.43087308	-0.08046449	-0.16636208	0.05747627
1811	18.10000000	-0.74623507	-0.18689821	-0.01867084	-0.18998189	0.11209309	0.75327378	-0.13001236	0.06141917	1.67183531	0.64935650	0.27049568	0.92606195	-0.05407479	-0.25728782	0.72419087	0.88627136	0.01828854	0.56575020	-0.35491160	1.73708622	0.44208909	-0.10175104	-0.12515752	0.05579818
1812	18.11000000	-0.72684988	-0.23017097	-0.00664343	-0.31644170	0.05605079	0.66937454	-0.31697885	0.19153519	2.02812671	0.82439248	0.29315884	0.91909000	-0.05088143	-0.21355184	0.64424500	1.10601021	0.04556200	0.55235925	-0.28166567	2.02305405	0.54825334	-0.12167079	-0.09216108	0.06887956
1813	18.12000000	-0.68784571	-0.25184573	-0.01524746	-0.42895136	0.02371766	0.61006795	-0.38127390	0.34825618	2.32144647	0.87219060	0.31613042	0.91168025	-0.03123951	-0.23668799	0.61303833	1.22019125	0.08061271	0.51457500	-0.14952993	2.24549835	0.71751899	-0.15850526	-0.06291055	0.09449142
1814	18.13000000	-0.61325312	-0.26523713	-0.06375559	-0.49077669	0.02935929	0.55788027	-0.40422667	0.46820326	2.58203123	0.85608578	0.35901632	0.87420150	0.06948847	-0.23170200	0.59377286	1.22471447	0.08216189	0.53553904	-0.04426962	2.38827852	0.90569377	-0.16913440	-0.02785375	0.11193793
1815	18.14000000	-0.52636668	-0.28261884	-0.11115459	-0.48527831	0.05781245	0.51493570	-0.42228975	0.60386105	2.83181747	0.84678678	0.42033824	0.82523894	0.19452925	-0.17492836	0.57675414	1.13040308	0.07171740	0.57127263	0.02145703	2.49038673	1.08216842	-0.19115144	-0.00401500	0.13181287
1816	18.15000000	-0.42551920	-0.30297197	-0.15170629	-0.43420823	0.11593438	0.47198079	-0.40756213	0.74460967	3.03403964	0.89869992	0.48415444	0.78750657	0.26913412	-0.16890639	0.54349627	0.95396243	0.05875859	0.57544685	0.07524129	2.57516161	1.20437064	-0.20121540	-0.00784776	0.15539999
1817	18.16000000	-0.31153152	-0.32659210	-0.18830822	-0.37291160	0.17141202	0.41106331	-0.31580647	0.85732431	3.17650805	1.04648039	0.53518285	0.77041162	0.32671221	-0.15955918	0.55199888	0.74370655	0.01832631	0.56471775	0.11334136	2.64417537	1.26645357	-0.19555450	-0.00947055	0.17023979
1818	18.17000000	-0.21211807	-0.35618881	-0.22073260	-0.31005241	0.20570258	0.35041323	-0.16549779	0.95302096	3.26188739	1.27992041	0.56219048	0.76622047	0.28984862	-0.16907863	0.60184926	0.51850221	-0.04165600	0.55708753	0.09264456	2.67177905	1.27081115	-0.20607343	-0.00488672	0.18407210
